# xmcd
#
# Track frame offsets:
# 150
# 15888
# 33334
# 49518
# 70638
# 86863
# 108843
# 125572
# 140005
# 164665
# 179617
# 195112
# 210959
#
# Disc length: 3104 seconds
#
# Revision: 0
# Processed by: cddbd v1.5.2PL0 Copyright (c) Steve Scherf et al.
# Submitted via: Axialis_AX_CDPlayer 2.6
#
DISCID=a60c1e0d
DTITLE=Levon Helm - Dirt Farmer
DYEAR=1900
DGENRE=
TTITLE0=False Hearted Lover Blues
TTITLE1=Poor Old Dirt Farmer
TTITLE2=The Mountain
TTITLE3=Little Birds
TTITLE4=The Girl I Left Behind
TTITLE5=Calvary
TTITLE6=Anna Lee
TTITLE7=Got Me A Woman
TTITLE8=A Train Robbery
TTITLE9=Single Girl, Married Girl
TTITLE10=The Blind Child
TTITLE11=Feelin' Good
TTITLE12=Wide River To Cross
EXTD=www.levonhelm.com
EXTT0=
EXTT1=
EXTT2=
EXTT3=
EXTT4=
EXTT5=
EXTT6=
EXTT7=
EXTT8=
EXTT9=
EXTT10=
EXTT11=
EXTT12=
PLAYORDER=
